<svg width="300" height="300" viewBox="0 0 300 300" fill="none" xmlns="http://www.w3.org/2000/svg">
<mask id="mask0_22_35" style="mask-type:luminance" maskUnits="userSpaceOnUse" x="0" y="0" width="300" height="300">
<path d="M0 150.014L150.042 299.972L300 150.014L150.042 0L0 150.014Z" fill="white"/>
</mask>
<g mask="url(#mask0_22_35)">
<path d="M0 299.972H300V0H0V299.972Z" fill="url(#paint0_linear_22_35)"/>
</g>
<path d="M241.948 150.014C241.948 200.795 200.823 241.948 150.014 241.948C99.2327 241.948 58.0518 200.795 58.0518 150.014C58.0518 99.2047 99.2327 58.0239 150.014 58.0239C200.823 58.0239 241.948 99.2047 241.948 150.014Z" fill="#FFF8F8"/>
<mask id="mask1_22_35" style="mask-type:luminance" maskUnits="userSpaceOnUse" x="67" y="67" width="166" height="166">
<path d="M67.2312 150.014C67.2312 195.715 104.286 232.769 150.042 232.769C195.742 232.769 232.769 195.715 232.769 150.014C232.769 104.258 195.742 67.2314 150.042 67.2314C104.286 67.2314 67.2312 104.258 67.2312 150.014Z" fill="white"/>
</mask>
<g mask="url(#mask1_22_35)">
<path d="M232.769 67.2314H67.2312V232.769H232.769V67.2314Z" fill="url(#paint1_linear_22_35)"/>
</g>
<path d="M116.82 132L106.524 118.752L116.496 106.584H123.48L112.248 119.796V117.492L123.84 132H116.82ZM101.448 132V106.584H107.1V132H101.448ZM124.992 132L135.072 106.584H140.184L150.156 132H144.18L136.548 110.904H138.6L130.86 132H124.992ZM130.716 127.392V122.784H144.576V127.392H130.716ZM158.605 121.524V117.348H163.969C165.097 117.348 165.961 117.06 166.561 116.484C167.185 115.908 167.497 115.128 167.497 114.144C167.497 113.232 167.197 112.476 166.597 111.876C165.997 111.276 165.133 110.976 164.005 110.976H158.605V106.584H164.653C166.333 106.584 167.809 106.908 169.081 107.556C170.353 108.18 171.349 109.056 172.069 110.184C172.789 111.312 173.149 112.608 173.149 114.072C173.149 115.56 172.789 116.868 172.069 117.996C171.349 119.1 170.341 119.964 169.045 120.588C167.749 121.212 166.225 121.524 164.473 121.524H158.605ZM154.285 132V106.584H159.937V132H154.285ZM168.109 132L160.189 121.056L165.373 119.652L174.805 132H168.109ZM178.717 132V106.584H184.369V132H178.717ZM183.037 132V127.104H196.969V132H183.037ZM183.037 121.38V116.664H195.709V121.38H183.037ZM183.037 111.444V106.584H196.789V111.444H183.037Z" fill="#F8F8F8"/>
<path d="M109.51 173L119.03 148.996H123.858L133.276 173H127.632L120.424 153.076H122.362L115.052 173H109.51ZM114.916 168.648V164.296H128.006V168.648H114.916ZM147.271 173.374C145.48 173.374 143.814 173.068 142.273 172.456C140.754 171.821 139.417 170.937 138.261 169.804C137.128 168.671 136.244 167.356 135.609 165.86C134.974 164.341 134.657 162.709 134.657 160.964C134.657 159.219 134.974 157.598 135.609 156.102C136.244 154.583 137.128 153.269 138.261 152.158C139.394 151.047 140.72 150.186 142.239 149.574C143.78 148.939 145.446 148.622 147.237 148.622C149.141 148.622 150.83 148.928 152.303 149.54C153.799 150.152 155.102 150.991 156.213 152.056L152.643 155.66C152.008 154.98 151.238 154.447 150.331 154.062C149.447 153.677 148.416 153.484 147.237 153.484C146.194 153.484 145.231 153.665 144.347 154.028C143.486 154.368 142.738 154.867 142.103 155.524C141.491 156.181 141.004 156.975 140.641 157.904C140.301 158.833 140.131 159.853 140.131 160.964C140.131 162.097 140.301 163.129 140.641 164.058C141.004 164.987 141.491 165.781 142.103 166.438C142.738 167.095 143.486 167.605 144.347 167.968C145.231 168.331 146.194 168.512 147.237 168.512C148.461 168.512 149.526 168.319 150.433 167.934C151.34 167.549 152.122 167.016 152.779 166.336L156.383 169.94C155.227 171.005 153.901 171.844 152.405 172.456C150.932 173.068 149.22 173.374 147.271 173.374ZM160.682 173V148.996H164.49L173.942 163.718H172.004L181.422 148.996H185.264V173H179.926V158.006L180.878 158.244L174.724 167.832H171.188L165.068 158.244L165.986 158.006V173H160.682Z" fill="#FFF5F5"/>
<path d="M96.36 194.132C95.664 194.132 95.064 194.02 94.56 193.796C94.064 193.564 93.608 193.216 93.192 192.752L94.416 191.54C94.688 191.852 94.988 192.096 95.316 192.272C95.652 192.44 96.04 192.524 96.48 192.524C96.88 192.524 97.188 192.452 97.404 192.308C97.628 192.164 97.74 191.964 97.74 191.708C97.74 191.476 97.668 191.288 97.524 191.144C97.38 191 97.188 190.876 96.948 190.772C96.716 190.668 96.456 190.568 96.168 190.472C95.888 190.376 95.608 190.268 95.328 190.148C95.048 190.02 94.788 189.864 94.548 189.68C94.316 189.488 94.128 189.252 93.984 188.972C93.84 188.684 93.768 188.324 93.768 187.892C93.768 187.372 93.892 186.924 94.14 186.548C94.396 186.172 94.748 185.888 95.196 185.696C95.644 185.496 96.16 185.396 96.744 185.396C97.336 185.396 97.876 185.5 98.364 185.708C98.86 185.916 99.268 186.2 99.588 186.56L98.364 187.772C98.108 187.508 97.848 187.312 97.584 187.184C97.328 187.056 97.036 186.992 96.708 186.992C96.38 186.992 96.12 187.056 95.928 187.184C95.736 187.304 95.64 187.48 95.64 187.712C95.64 187.928 95.712 188.104 95.856 188.24C96 188.368 96.188 188.48 96.42 188.576C96.66 188.672 96.92 188.768 97.2 188.864C97.488 188.96 97.772 189.072 98.052 189.2C98.332 189.328 98.588 189.492 98.82 189.692C99.06 189.884 99.252 190.132 99.396 190.436C99.54 190.732 99.612 191.1 99.612 191.54C99.612 192.348 99.324 192.984 98.748 193.448C98.172 193.904 97.376 194.132 96.36 194.132ZM103.052 194V185.648H104.936V194H103.052ZM100.4 187.172V185.528H107.588V187.172H100.4ZM112.481 194.132C111.785 194.132 111.169 193.984 110.633 193.688C110.105 193.392 109.689 192.984 109.385 192.464C109.089 191.936 108.941 191.336 108.941 190.664V185.528H110.837V190.772C110.837 191.108 110.909 191.4 111.053 191.648C111.197 191.896 111.393 192.088 111.641 192.224C111.897 192.352 112.177 192.416 112.481 192.416C112.801 192.416 113.081 192.352 113.321 192.224C113.561 192.088 113.749 191.9 113.885 191.66C114.029 191.412 114.101 191.12 114.101 190.784V185.528H115.997V190.676C115.997 191.348 115.849 191.944 115.553 192.464C115.257 192.984 114.845 193.392 114.317 193.688C113.789 193.984 113.177 194.132 112.481 194.132ZM119.251 194V192.344H121.351C121.863 192.344 122.311 192.244 122.695 192.044C123.079 191.836 123.375 191.536 123.583 191.144C123.791 190.752 123.895 190.288 123.895 189.752C123.895 189.216 123.787 188.756 123.571 188.372C123.363 187.988 123.067 187.692 122.683 187.484C122.307 187.276 121.863 187.172 121.351 187.172H119.191V185.528H121.375C122.015 185.528 122.603 185.632 123.139 185.84C123.683 186.04 124.155 186.332 124.555 186.716C124.963 187.092 125.275 187.54 125.491 188.06C125.715 188.572 125.827 189.14 125.827 189.764C125.827 190.38 125.715 190.948 125.491 191.468C125.275 191.988 124.967 192.436 124.567 192.812C124.167 193.188 123.695 193.48 123.151 193.688C122.615 193.896 122.031 194 121.399 194H119.251ZM117.979 194V185.528H119.863V194H117.979ZM127.506 194V185.528H129.39V194H127.506ZM128.946 194V192.368H133.59V194H128.946ZM128.946 190.46V188.888H133.17V190.46H128.946ZM128.946 187.148V185.528H133.53V187.148H128.946ZM135.368 194V185.528H136.688L137.252 187.22V194H135.368ZM141.212 194L136.22 187.604L136.688 185.528L141.68 191.924L141.212 194ZM141.212 194L140.708 192.308V185.528H142.592V194H141.212ZM146.784 194V185.648H148.668V194H146.784ZM144.132 187.172V185.528H151.32V187.172H144.132ZM159.449 194.132C158.817 194.132 158.229 194.024 157.685 193.808C157.149 193.584 156.677 193.272 156.269 192.872C155.869 192.472 155.557 192.008 155.333 191.48C155.109 190.944 154.997 190.368 154.997 189.752C154.997 189.136 155.109 188.564 155.333 188.036C155.557 187.5 155.869 187.036 156.269 186.644C156.669 186.252 157.137 185.948 157.673 185.732C158.217 185.508 158.805 185.396 159.437 185.396C160.109 185.396 160.705 185.504 161.225 185.72C161.753 185.936 162.213 186.232 162.605 186.608L161.345 187.88C161.121 187.64 160.849 187.452 160.529 187.316C160.217 187.18 159.853 187.112 159.437 187.112C159.069 187.112 158.729 187.176 158.417 187.304C158.113 187.424 157.849 187.6 157.625 187.832C157.409 188.064 157.237 188.344 157.109 188.672C156.989 189 156.929 189.36 156.929 189.752C156.929 190.152 156.989 190.516 157.109 190.844C157.237 191.172 157.409 191.452 157.625 191.684C157.849 191.916 158.113 192.096 158.417 192.224C158.729 192.352 159.069 192.416 159.437 192.416C159.869 192.416 160.245 192.348 160.565 192.212C160.885 192.076 161.161 191.888 161.393 191.648L162.665 192.92C162.257 193.296 161.789 193.592 161.261 193.808C160.741 194.024 160.137 194.132 159.449 194.132ZM164.183 194V185.528H166.067V194H164.183ZM169.427 194V185.528H171.323V194H169.427ZM165.311 190.46V188.828H170.051V190.46H165.311ZM172.793 194L176.153 185.528H177.857L181.181 194H179.189L176.645 186.968H177.329L174.749 194H172.793ZM174.701 192.464V190.928H179.321V192.464H174.701ZM183.997 190.916V189.452H185.821C186.053 189.452 186.265 189.404 186.457 189.308C186.649 189.212 186.801 189.072 186.913 188.888C187.025 188.704 187.081 188.48 187.081 188.216C187.081 187.96 187.025 187.74 186.913 187.556C186.801 187.372 186.649 187.232 186.457 187.136C186.265 187.04 186.053 186.992 185.821 186.992H183.997V185.528H186.097C186.633 185.528 187.117 185.636 187.549 185.852C187.981 186.068 188.321 186.38 188.569 186.788C188.825 187.188 188.953 187.664 188.953 188.216C188.953 188.768 188.825 189.248 188.569 189.656C188.321 190.056 187.981 190.368 187.549 190.592C187.117 190.808 186.633 190.916 186.097 190.916H183.997ZM182.557 194V185.528H184.441V194H182.557ZM192.496 194V185.648H194.38V194H192.496ZM189.844 187.172V185.528H197.032V187.172H189.844ZM198.564 194V185.528H200.448V194H198.564ZM200.004 194V192.368H204.648V194H200.004ZM200.004 190.46V188.888H204.228V190.46H200.004ZM200.004 187.148V185.528H204.588V187.148H200.004ZM207.867 190.508V189.116H209.655C210.031 189.116 210.319 189.02 210.519 188.828C210.727 188.636 210.831 188.376 210.831 188.048C210.831 187.744 210.731 187.492 210.531 187.292C210.331 187.092 210.043 186.992 209.667 186.992H207.867V185.528H209.883C210.443 185.528 210.935 185.636 211.359 185.852C211.783 186.06 212.115 186.352 212.355 186.728C212.595 187.104 212.715 187.536 212.715 188.024C212.715 188.52 212.595 188.956 212.355 189.332C212.115 189.7 211.779 189.988 211.347 190.196C210.915 190.404 210.407 190.508 209.823 190.508H207.867ZM206.427 194V185.528H208.311V194H206.427ZM211.035 194L208.395 190.352L210.123 189.884L213.267 194H211.035Z" fill="white"/>
<defs>
<linearGradient id="paint0_linear_22_35" x1="-22.3234" y1="299.98" x2="-22.3234" y2="0.00246745" gradientUnits="userSpaceOnUse">
<stop stop-color="#3792C1"/>
<stop offset="0.015625" stop-color="#3792C1"/>
<stop offset="0.03125" stop-color="#3893C2"/>
<stop offset="0.046875" stop-color="#3993C3"/>
<stop offset="0.0625" stop-color="#3A94C3"/>
<stop offset="0.078125" stop-color="#3B95C4"/>
<stop offset="0.09375" stop-color="#3C96C5"/>
<stop offset="0.109375" stop-color="#3D96C5"/>
<stop offset="0.125" stop-color="#3E97C6"/>
<stop offset="0.140625" stop-color="#3F98C7"/>
<stop offset="0.15625" stop-color="#4099C7"/>
<stop offset="0.171875" stop-color="#4199C8"/>
<stop offset="0.1875" stop-color="#429AC9"/>
<stop offset="0.203125" stop-color="#439BC9"/>
<stop offset="0.21875" stop-color="#449CCA"/>
<stop offset="0.234375" stop-color="#459CCB"/>
<stop offset="0.25" stop-color="#469DCB"/>
<stop offset="0.265625" stop-color="#489ECC"/>
<stop offset="0.28125" stop-color="#499ECD"/>
<stop offset="0.296875" stop-color="#4A9FCD"/>
<stop offset="0.3125" stop-color="#4BA0CE"/>
<stop offset="0.328125" stop-color="#4CA1CF"/>
<stop offset="0.34375" stop-color="#4DA2CF"/>
<stop offset="0.359375" stop-color="#4EA2D0"/>
<stop offset="0.375" stop-color="#4FA3D1"/>
<stop offset="0.390625" stop-color="#50A4D1"/>
<stop offset="0.40625" stop-color="#51A5D2"/>
<stop offset="0.414063" stop-color="#52A5D3"/>
<stop offset="0.421875" stop-color="#53A6D3"/>
<stop offset="0.4375" stop-color="#54A6D4"/>
<stop offset="0.445313" stop-color="#54A7D4"/>
<stop offset="0.453125" stop-color="#55A7D4"/>
<stop offset="0.460938" stop-color="#56A7D5"/>
<stop offset="0.46875" stop-color="#56A8D5"/>
<stop offset="0.476563" stop-color="#57A8D5"/>
<stop offset="0.484375" stop-color="#57A9D6"/>
<stop offset="0.492188" stop-color="#58A9D6"/>
<stop offset="0.5" stop-color="#58A9D6"/>
<stop offset="0.507813" stop-color="#59AAD7"/>
<stop offset="0.515625" stop-color="#5AAAD7"/>
<stop offset="0.523438" stop-color="#5AABD7"/>
<stop offset="0.53125" stop-color="#5BABD8"/>
<stop offset="0.539063" stop-color="#5BABD8"/>
<stop offset="0.546875" stop-color="#5CACD9"/>
<stop offset="0.554688" stop-color="#5DACD9"/>
<stop offset="0.5625" stop-color="#5DADD9"/>
<stop offset="0.570313" stop-color="#5EADDA"/>
<stop offset="0.578125" stop-color="#5EADDA"/>
<stop offset="0.585938" stop-color="#5FAEDA"/>
<stop offset="0.59375" stop-color="#60AEDB"/>
<stop offset="0.601563" stop-color="#60AEDB"/>
<stop offset="0.609375" stop-color="#61AFDB"/>
<stop offset="0.617188" stop-color="#61AFDC"/>
<stop offset="0.625" stop-color="#62B0DC"/>
<stop offset="0.632813" stop-color="#63B0DC"/>
<stop offset="0.640625" stop-color="#63B0DD"/>
<stop offset="0.648438" stop-color="#64B1DD"/>
<stop offset="0.65625" stop-color="#64B1DD"/>
<stop offset="0.664063" stop-color="#65B2DE"/>
<stop offset="0.671875" stop-color="#66B2DE"/>
<stop offset="0.679688" stop-color="#66B2DE"/>
<stop offset="0.6875" stop-color="#67B3DF"/>
<stop offset="0.695313" stop-color="#67B3DF"/>
<stop offset="0.703125" stop-color="#68B4DF"/>
<stop offset="0.710938" stop-color="#69B4E0"/>
<stop offset="0.71875" stop-color="#69B4E0"/>
<stop offset="0.726563" stop-color="#6AB5E1"/>
<stop offset="0.734375" stop-color="#6BB5E1"/>
<stop offset="0.742188" stop-color="#6BB6E1"/>
<stop offset="0.75" stop-color="#6CB6E2"/>
<stop offset="0.757812" stop-color="#6CB6E2"/>
<stop offset="0.765625" stop-color="#6DB7E2"/>
<stop offset="0.773438" stop-color="#6EB7E3"/>
<stop offset="0.78125" stop-color="#6EB8E3"/>
<stop offset="0.789063" stop-color="#6FB8E3"/>
<stop offset="0.796875" stop-color="#70B8E4"/>
<stop offset="0.804687" stop-color="#70B9E4"/>
<stop offset="0.8125" stop-color="#71B9E4"/>
<stop offset="0.820313" stop-color="#71BAE5"/>
<stop offset="0.828125" stop-color="#72BAE5"/>
<stop offset="0.835938" stop-color="#73BAE5"/>
<stop offset="0.84375" stop-color="#73BBE6"/>
<stop offset="0.851562" stop-color="#74BBE6"/>
<stop offset="0.859375" stop-color="#75BCE6"/>
<stop offset="0.867188" stop-color="#75BCE7"/>
<stop offset="0.875" stop-color="#76BDE7"/>
<stop offset="0.882813" stop-color="#77BDE8"/>
<stop offset="0.890625" stop-color="#77BDE8"/>
<stop offset="0.898438" stop-color="#78BEE8"/>
<stop offset="0.90625" stop-color="#79BEE9"/>
<stop offset="0.914063" stop-color="#79BFE9"/>
<stop offset="0.921875" stop-color="#7ABFE9"/>
<stop offset="0.929688" stop-color="#7BBFEA"/>
<stop offset="0.9375" stop-color="#7BC0EA"/>
<stop offset="0.945313" stop-color="#7CC0EA"/>
<stop offset="0.953125" stop-color="#7DC1EB"/>
<stop offset="0.960938" stop-color="#7DC1EB"/>
<stop offset="0.96875" stop-color="#7EC1EB"/>
<stop offset="0.976563" stop-color="#7FC2EC"/>
<stop offset="0.984375" stop-color="#7FC2EC"/>
<stop offset="0.992188" stop-color="#80C3ED"/>
<stop offset="1" stop-color="#81C3ED"/>
</linearGradient>
<linearGradient id="paint1_linear_22_35" x1="255.091" y1="67.2234" x2="255.091" y2="232.781" gradientUnits="userSpaceOnUse">
<stop offset="0.0165979" stop-color="#3792C1"/>
<stop offset="0.03125" stop-color="#3792C1"/>
<stop offset="0.0390625" stop-color="#3792C1"/>
<stop offset="0.0429687" stop-color="#3893C2"/>
<stop offset="0.046875" stop-color="#3993C2"/>
<stop offset="0.0546875" stop-color="#3993C3"/>
<stop offset="0.0625" stop-color="#3A94C3"/>
<stop offset="0.0703125" stop-color="#3B95C4"/>
<stop offset="0.078125" stop-color="#3C96C5"/>
<stop offset="0.0859375" stop-color="#3D96C5"/>
<stop offset="0.09375" stop-color="#3E97C6"/>
<stop offset="0.101563" stop-color="#3F98C7"/>
<stop offset="0.109375" stop-color="#4098C7"/>
<stop offset="0.117187" stop-color="#4199C8"/>
<stop offset="0.125" stop-color="#429AC8"/>
<stop offset="0.132813" stop-color="#439BC9"/>
<stop offset="0.140625" stop-color="#449BCA"/>
<stop offset="0.148438" stop-color="#459CCA"/>
<stop offset="0.15625" stop-color="#469DCB"/>
<stop offset="0.164063" stop-color="#479DCC"/>
<stop offset="0.171875" stop-color="#489ECC"/>
<stop offset="0.179687" stop-color="#499FCD"/>
<stop offset="0.1875" stop-color="#4A9FCD"/>
<stop offset="0.195313" stop-color="#4AA0CE"/>
<stop offset="0.203125" stop-color="#4BA0CE"/>
<stop offset="0.210938" stop-color="#4CA1CF"/>
<stop offset="0.21875" stop-color="#4DA2D0"/>
<stop offset="0.226562" stop-color="#4EA2D0"/>
<stop offset="0.234375" stop-color="#4FA3D1"/>
<stop offset="0.242188" stop-color="#50A4D1"/>
<stop offset="0.25" stop-color="#51A4D2"/>
<stop offset="0.257813" stop-color="#52A5D2"/>
<stop offset="0.265625" stop-color="#53A5D3"/>
<stop offset="0.273438" stop-color="#54A6D3"/>
<stop offset="0.28125" stop-color="#54A7D4"/>
<stop offset="0.289063" stop-color="#55A7D5"/>
<stop offset="0.296875" stop-color="#56A8D5"/>
<stop offset="0.304688" stop-color="#57A8D6"/>
<stop offset="0.3125" stop-color="#58A9D6"/>
<stop offset="0.320313" stop-color="#59A9D7"/>
<stop offset="0.328125" stop-color="#59AAD7"/>
<stop offset="0.335938" stop-color="#5AABD8"/>
<stop offset="0.34375" stop-color="#5BABD8"/>
<stop offset="0.351562" stop-color="#5CACD8"/>
<stop offset="0.359375" stop-color="#5DACD9"/>
<stop offset="0.367188" stop-color="#5EADD9"/>
<stop offset="0.375" stop-color="#5EADDA"/>
<stop offset="0.382813" stop-color="#5FAEDA"/>
<stop offset="0.390625" stop-color="#60AEDB"/>
<stop offset="0.398438" stop-color="#61AFDB"/>
<stop offset="0.40625" stop-color="#61AFDC"/>
<stop offset="0.414063" stop-color="#62B0DC"/>
<stop offset="0.421875" stop-color="#63B0DD"/>
<stop offset="0.429688" stop-color="#64B1DD"/>
<stop offset="0.4375" stop-color="#64B1DD"/>
<stop offset="0.445312" stop-color="#65B2DE"/>
<stop offset="0.453125" stop-color="#66B2DE"/>
<stop offset="0.460938" stop-color="#67B3DF"/>
<stop offset="0.46875" stop-color="#67B3DF"/>
<stop offset="0.476563" stop-color="#68B4DF"/>
<stop offset="0.484375" stop-color="#69B4E0"/>
<stop offset="0.492188" stop-color="#69B4E0"/>
<stop offset="0.5" stop-color="#6AB5E1"/>
<stop offset="0.507813" stop-color="#6BB5E1"/>
<stop offset="0.515625" stop-color="#6BB6E1"/>
<stop offset="0.523437" stop-color="#6CB6E2"/>
<stop offset="0.53125" stop-color="#6DB7E2"/>
<stop offset="0.546875" stop-color="#6EB7E3"/>
<stop offset="0.5625" stop-color="#6FB8E3"/>
<stop offset="0.578125" stop-color="#70B9E4"/>
<stop offset="0.59375" stop-color="#71B9E5"/>
<stop offset="0.609375" stop-color="#72BAE5"/>
<stop offset="0.625" stop-color="#73BBE6"/>
<stop offset="0.640625" stop-color="#74BCE6"/>
<stop offset="0.65625" stop-color="#75BCE7"/>
<stop offset="0.671875" stop-color="#76BDE7"/>
<stop offset="0.6875" stop-color="#77BDE8"/>
<stop offset="0.703125" stop-color="#78BEE8"/>
<stop offset="0.71875" stop-color="#79BEE9"/>
<stop offset="0.734375" stop-color="#7ABFE9"/>
<stop offset="0.75" stop-color="#7BBFEA"/>
<stop offset="0.765625" stop-color="#7BC0EA"/>
<stop offset="0.78125" stop-color="#7CC0EA"/>
<stop offset="0.8125" stop-color="#7DC1EB"/>
<stop offset="0.84375" stop-color="#7EC2EB"/>
<stop offset="0.875" stop-color="#7FC2EC"/>
<stop offset="0.9375" stop-color="#80C3ED"/>
<stop offset="1" stop-color="#81C3ED"/>
</linearGradient>
</defs>
</svg>
