<svg width="300" height="300" viewBox="0 0 300 300" fill="none" xmlns="http://www.w3.org/2000/svg">
<g clip-path="url(#clip0_18_2)">
<mask id="mask0_18_2" style="mask-type:luminance" maskUnits="userSpaceOnUse" x="0" y="-1" width="300" height="301">
<path d="M0 150.014L150.042 299.972L300 150.014L150.042 -0.000244141L0 150.014Z" fill="white"/>
</mask>
<g mask="url(#mask0_18_2)">
<path d="M0 299.972H300V-0.000244141H0V299.972Z" fill="url(#paint0_linear_18_2)"/>
</g>
<path d="M241.948 150.014C241.948 200.795 200.823 241.948 150.014 241.948C99.2327 241.948 58.0518 200.795 58.0518 150.014C58.0518 99.2045 99.2327 58.0237 150.014 58.0237C200.823 58.0237 241.948 99.2045 241.948 150.014Z" fill="white"/>
<mask id="mask1_18_2" style="mask-type:luminance" maskUnits="userSpaceOnUse" x="67" y="67" width="166" height="166">
<path d="M67.2312 150.014C67.2312 195.714 104.286 232.769 150.042 232.769C195.742 232.769 232.769 195.714 232.769 150.014C232.769 104.257 195.742 67.2312 150.042 67.2312C104.286 67.2312 67.2312 104.257 67.2312 150.014Z" fill="white"/>
</mask>
<g mask="url(#mask1_18_2)">
<path d="M232.769 67.2312H67.2312V232.769H232.769V67.2312Z" fill="url(#paint1_linear_18_2)"/>
</g>
<path d="M101.815 166.127C100.973 166.801 100.215 167.418 99.5134 168.008C98.8678 168.597 97.9976 169.103 96.8466 169.692C95.7238 170.282 94.6851 170.703 93.5903 170.927C92.5517 171.236 91.092 171.377 89.1831 171.377C85.6742 171.377 82.7547 170.141 80.4529 167.811C78.1229 165.425 76.9439 162.506 76.9439 158.885C76.9439 155.881 77.5334 153.495 78.7124 151.698C79.9195 149.874 81.6038 148.414 83.7934 147.347C86.0391 146.281 88.734 145.523 91.8218 145.102C94.9658 144.709 98.3063 144.316 101.928 144.119V143.867C101.928 141.705 101.085 140.162 99.4853 139.347C97.8572 138.505 95.443 138.084 92.1868 138.084C90.699 138.084 89.0147 138.365 87.0497 138.926C85.1127 139.404 83.2039 140.133 81.295 140.948H80.2844V131.319C81.5196 130.926 83.4846 130.533 86.2356 130.028C88.9866 129.523 91.7376 129.27 94.5728 129.27C101.422 129.27 106.391 130.449 109.535 132.694C112.707 134.996 114.279 138.505 114.279 143.165V170.31L101.815 170.31V166.127ZM101.815 159.895V151.614C99.7099 151.838 98.0256 152.035 96.7624 152.203C95.4992 152.343 94.2079 152.597 92.9728 153.074C91.878 153.439 91.0358 154 90.4744 154.786C89.8568 155.572 89.52 156.582 89.52 157.818C89.52 159.67 90.0533 160.962 91.0358 161.664C92.0183 162.366 93.5061 162.674 95.4992 162.674C96.5098 162.674 97.6326 162.506 98.7274 161.944C99.9064 161.495 100.917 160.766 101.815 159.895Z" fill="white"/>
<path d="M141.536 171.376C138.252 171.376 135.192 170.927 132.469 170.113C129.774 169.271 127.416 168.008 125.395 166.295C123.374 164.527 121.83 162.365 120.707 159.783C119.585 157.172 119.051 154.056 119.051 150.547C119.051 146.701 119.613 143.529 120.848 140.806C122.055 138.14 123.655 135.95 125.76 134.238C127.753 132.581 130.083 131.346 132.806 130.56C135.473 129.746 138.28 129.353 141.2 129.353C143.389 129.353 145.635 129.634 147.796 130.167C150.014 130.645 152.204 131.459 154.421 132.581V143.221H152.821C152.372 142.743 151.726 142.21 151.025 141.705C150.267 141.087 149.537 140.582 148.667 140.133C147.768 139.571 146.702 139.234 145.635 138.841C144.456 138.504 143.193 138.308 141.789 138.308C138.617 138.308 136.147 139.403 134.406 141.649C132.694 143.838 131.768 146.814 131.768 150.547C131.768 154.505 132.722 157.509 134.575 159.474C136.427 161.411 138.87 162.393 141.986 162.393C143.558 162.393 144.961 162.197 146.168 161.888C147.319 161.523 148.33 161.074 149.144 160.597C150.014 160.092 150.744 159.615 151.333 159.053C151.923 158.548 152.456 158.071 152.821 157.65H154.421V168.261C153.719 168.57 152.905 168.934 151.951 169.355C151.025 169.72 150.126 170.057 149.116 170.31C147.937 170.703 146.758 170.871 145.719 171.068C144.652 171.264 143.277 171.376 141.536 171.376Z" fill="white"/>
<path d="M208.683 170.31V150.379C208.683 148.442 208.655 146.814 208.571 145.438C208.487 144.091 208.262 142.968 207.897 142.126C207.561 141.256 206.971 140.666 206.241 140.273C205.511 139.852 204.445 139.684 203.125 139.684C202.171 139.684 201.244 139.852 200.29 140.273C199.364 140.694 198.353 141.312 197.258 142.042V170.31H184.823V150.379C184.823 148.442 184.795 146.814 184.71 145.438C184.598 144.091 184.43 142.968 184.065 142.126C183.672 141.256 183.138 140.666 182.409 140.273C181.623 139.852 180.584 139.684 179.264 139.684C178.226 139.684 177.243 139.908 176.261 140.357C175.278 140.862 174.324 141.424 173.426 142.042V170.31H160.99V130.476H173.426V134.883C175.447 133.171 177.384 131.796 179.18 130.813C180.949 129.859 182.97 129.353 185.244 129.353C187.658 129.353 189.819 129.943 191.616 131.094C193.525 132.245 194.9 133.957 195.883 136.287C198.269 134.069 200.543 132.357 202.62 131.15C204.753 129.943 206.887 129.353 209.048 129.353C210.901 129.353 212.557 129.69 214.045 130.252C215.505 130.869 216.768 131.767 217.75 132.918C218.901 134.21 219.715 135.725 220.249 137.494C220.838 139.262 221.091 141.536 221.091 144.4L221.091 170.31H208.683Z" fill="white"/>
<path d="M93.053 114.732C93.053 114.012 93.17 113.508 93.404 113.22C93.872 113.004 94.394 112.896 94.97 112.896C94.754 111.096 94.646 109.287 94.646 107.469C94.646 105.723 94.754 103.986 94.97 102.258C94.88 102.258 94.673 102.231 94.349 102.177C93.881 102.105 93.566 102.024 93.404 101.934C93.278 101.79 93.215 101.286 93.215 100.422C93.215 99.576 93.278 99.063 93.404 98.883C93.53 98.667 93.971 98.496 94.727 98.37C95.483 98.226 96.221 98.154 96.941 98.154C97.715 98.154 98.552 98.235 99.452 98.397C100.37 98.559 100.892 98.703 101.018 98.829C101.306 99.477 101.45 100.26 101.45 101.178C101.45 101.502 101.405 101.736 101.315 101.88C100.937 102.06 100.622 102.159 100.37 102.177C101.09 102.987 101.936 103.986 102.908 105.174C103.862 104.022 104.717 103.014 105.473 102.15C105.113 102.078 104.87 102.006 104.744 101.934C104.618 101.79 104.555 101.286 104.555 100.422C104.555 99.576 104.618 99.063 104.744 98.883C104.888 98.667 105.311 98.496 106.013 98.37C106.733 98.226 107.561 98.154 108.497 98.154C110.603 98.154 111.989 98.397 112.655 98.883C112.853 99.081 112.952 99.522 112.952 100.206C112.952 101.034 112.853 101.592 112.655 101.88C112.259 102.078 111.827 102.177 111.359 102.177C111.161 102.177 111.008 102.168 110.9 102.15C111.116 103.608 111.224 105.192 111.224 106.902C111.224 108.306 111.116 110.34 110.9 113.004C111.008 112.986 111.161 112.977 111.359 112.977C111.827 112.977 112.259 113.076 112.655 113.274C112.745 113.472 112.79 113.796 112.79 114.246C112.79 114.822 112.718 115.371 112.574 115.893C112.448 116.415 112.295 116.703 112.115 116.757C111.755 116.919 110.792 117 109.226 117C106.922 117 105.428 116.757 104.744 116.271C104.492 116.019 104.366 115.506 104.366 114.732C104.366 113.994 104.492 113.49 104.744 113.22C104.906 113.13 105.221 113.049 105.689 112.977C106.013 112.923 106.22 112.896 106.31 112.896C106.094 111.096 105.986 109.215 105.986 107.253C104.888 108.729 103.862 109.467 102.908 109.467C101.972 109.467 100.964 108.738 99.884 107.28C99.83 108.936 99.722 110.844 99.56 113.004C99.668 112.986 99.821 112.977 100.019 112.977C100.487 112.977 100.919 113.076 101.315 113.274C101.603 113.634 101.747 114.201 101.747 114.975C101.747 115.587 101.621 116.028 101.369 116.298C100.685 116.766 99.335 117 97.319 117C95.051 117 93.746 116.757 93.404 116.271C93.17 116.091 93.053 115.578 93.053 114.732ZM114.376 111.384C114.376 110.07 114.565 108.81 114.943 107.604C115.339 106.38 115.969 105.336 116.833 104.472C117.715 103.608 118.75 103.176 119.938 103.176C120.424 103.176 120.856 103.248 121.234 103.392C121.63 103.536 121.936 103.716 122.152 103.932C122.386 104.13 122.575 104.337 122.719 104.553C122.863 104.751 122.962 104.922 123.016 105.066L123.124 105.282C123.124 104.67 123.115 104.211 123.097 103.905C123.691 103.401 124.753 103.149 126.283 103.149C126.823 103.149 127.3 103.167 127.714 103.203C128.146 103.239 128.47 103.284 128.686 103.338C128.902 103.392 129.073 103.446 129.199 103.5C129.343 103.554 129.433 103.59 129.469 103.608L129.523 103.635C129.595 103.797 129.631 104.301 129.631 105.147C129.631 106.011 129.595 106.524 129.523 106.686C129.271 107.01 128.821 107.172 128.173 107.172C127.993 107.172 127.795 107.154 127.579 107.118C127.633 107.226 127.66 107.685 127.66 108.495C127.66 110.853 127.579 112.158 127.417 112.41C127.543 112.356 127.696 112.329 127.876 112.329C128.092 112.329 128.578 112.41 129.334 112.572C129.478 112.68 129.55 113.445 129.55 114.867C129.55 115.659 129.523 116.163 129.469 116.379C129.361 116.577 128.956 116.766 128.254 116.946C127.57 117.126 126.841 117.216 126.067 117.216C123.907 117.216 122.701 117.18 122.449 117.108C122.323 116.766 122.26 116.478 122.26 116.244C122.26 116.1 122.287 115.992 122.341 115.92C122.071 116.01 121.486 116.289 120.586 116.757C119.704 117.207 119.038 117.432 118.588 117.432C117.202 117.432 116.149 116.847 115.429 115.677C114.727 114.507 114.376 113.076 114.376 111.384ZM117.967 110.871C117.967 111.447 118.138 111.942 118.48 112.356C118.822 112.77 119.272 112.977 119.83 112.977C120.568 112.977 121.243 112.653 121.855 112.005C122.485 111.357 122.8 110.619 122.8 109.791C122.8 109.179 122.62 108.666 122.26 108.252C121.918 107.838 121.459 107.631 120.883 107.631C120.343 107.631 119.839 107.811 119.371 108.171C118.903 108.531 118.543 109.008 118.291 109.602C118.075 110.016 117.967 110.439 117.967 110.871ZM131.197 110.142C131.197 108.324 131.728 106.713 132.79 105.309C133.87 103.887 135.319 103.176 137.137 103.176C137.785 103.176 138.487 103.284 139.243 103.5C139.243 103.464 139.225 103.113 139.189 102.447C139.171 101.763 139.162 101.043 139.162 100.287C139.162 98.505 139.207 97.524 139.297 97.344C139.927 96.804 141.475 96.534 143.941 96.534C144.733 96.534 145.39 96.588 145.912 96.696C146.452 96.786 146.776 96.867 146.884 96.939L147.073 97.047C147.145 97.209 147.181 97.713 147.181 98.559C147.181 99.423 147.145 99.936 147.073 100.098C146.983 100.242 146.776 100.359 146.452 100.449C146.146 100.539 145.849 100.584 145.561 100.584C145.345 100.584 145.201 100.575 145.129 100.557C145.129 100.863 145.138 101.61 145.156 102.798C145.174 103.968 145.183 104.994 145.183 105.876C145.183 109.08 145.093 111.186 144.913 112.194C144.967 112.176 145.12 112.167 145.372 112.167C145.768 112.167 146.254 112.23 146.83 112.356C146.974 112.464 147.046 113.229 147.046 114.651C147.046 115.443 147.019 115.947 146.965 116.163C146.461 116.721 145.147 117 143.023 117C142.951 117 141.943 116.964 139.999 116.892C139.909 116.55 139.864 116.235 139.864 115.947C139.864 115.803 139.873 115.722 139.891 115.704C139.603 115.794 139.018 116.073 138.136 116.541C137.272 116.991 136.543 117.216 135.949 117.216C134.995 117.216 134.14 116.829 133.384 116.055C132.628 115.281 132.07 114.363 131.71 113.301C131.368 112.239 131.197 111.186 131.197 110.142ZM135.328 110.331C135.328 110.907 135.499 111.402 135.841 111.816C136.183 112.23 136.633 112.437 137.191 112.437C137.929 112.437 138.604 112.113 139.216 111.465C139.846 110.817 140.161 110.079 140.161 109.251C140.161 108.639 139.981 108.126 139.621 107.712C139.279 107.298 138.82 107.091 138.244 107.091C137.488 107.091 136.813 107.442 136.219 108.144C135.625 108.828 135.328 109.557 135.328 110.331ZM147.749 106.335C147.749 105.093 147.839 104.328 148.019 104.04C149.369 103.68 150.602 103.5 151.718 103.5C152.96 103.5 154.04 103.662 154.958 103.986C155.084 104.076 155.219 104.4 155.363 104.958C155.507 105.498 155.579 105.966 155.579 106.362C155.579 106.956 155.417 107.469 155.093 107.901C154.895 108.027 154.643 108.09 154.337 108.09C154.247 108.09 154.184 108.081 154.148 108.063C154.112 108.045 154.067 108.027 154.013 108.009C153.977 107.973 153.932 107.946 153.878 107.928C153.77 108.468 153.716 108.963 153.716 109.413C153.716 110.457 153.959 111.258 154.445 111.816C154.931 112.374 155.525 112.653 156.227 112.653C156.983 112.653 157.64 112.338 158.198 111.708C158.774 111.06 159.062 110.187 159.062 109.089C159.062 108.639 159.008 108.162 158.9 107.658C158.648 107.802 158.324 107.874 157.928 107.874C157.694 107.874 157.541 107.82 157.469 107.712C157.163 107.604 157.01 107.055 157.01 106.065C157.01 105.147 157.163 104.598 157.469 104.418C158.819 103.806 160.403 103.5 162.221 103.5C164.201 103.5 165.371 103.752 165.731 104.256C165.929 104.544 166.028 104.949 166.028 105.471C166.028 106.497 165.767 107.163 165.245 107.469C165.029 107.631 164.786 107.712 164.516 107.712C164.426 107.712 164.291 107.694 164.111 107.658C164.111 108.18 164.129 109.026 164.165 110.196C164.201 111.348 164.219 112.221 164.219 112.815C164.723 112.779 165.02 112.761 165.11 112.761C165.29 112.761 165.434 112.77 165.542 112.788C165.614 112.86 165.65 113.049 165.65 113.355C165.65 113.841 165.578 114.453 165.434 115.191C165.29 115.911 165.155 116.352 165.029 116.514C164.831 116.622 164.363 116.748 163.625 116.892C162.887 117.018 162.158 117.081 161.438 117.081C160.574 117.081 159.926 116.973 159.494 116.757C159.332 116.649 159.251 116.406 159.251 116.028C159.251 115.956 159.296 115.65 159.386 115.11C157.46 116.55 155.678 117.27 154.04 117.27C152.618 117.27 151.475 116.766 150.611 115.758C149.747 114.75 149.315 113.211 149.315 111.141C149.315 110.799 149.378 109.809 149.504 108.171C149.504 108.207 149.423 108.225 149.261 108.225C149.009 108.225 148.586 108.18 147.992 108.09C147.83 107.91 147.749 107.325 147.749 106.335ZM167.616 105.147C167.616 104.301 167.652 103.797 167.724 103.635C168.372 103.311 169.668 103.149 171.612 103.149C172.386 103.149 172.971 103.203 173.367 103.311C173.763 103.401 174.141 103.599 174.501 103.905C174.483 104.211 174.474 104.67 174.474 105.282L174.555 105.066C174.627 104.922 174.735 104.751 174.879 104.553C175.041 104.337 175.23 104.13 175.446 103.932C175.662 103.716 175.968 103.536 176.364 103.392C176.76 103.248 177.201 103.176 177.687 103.176C179.055 103.176 180.216 103.761 181.17 104.931C180.792 106.623 179.793 107.811 178.173 108.495C177.525 108.027 176.922 107.793 176.364 107.793C175.644 107.793 175.077 108.153 174.663 108.873C174.267 109.575 174.069 110.448 174.069 111.492C174.069 111.852 174.096 112.239 174.15 112.653C174.258 112.653 174.636 112.707 175.284 112.815L175.635 112.869C175.905 113.067 176.04 113.544 176.04 114.3C176.04 114.84 175.959 115.38 175.797 115.92C175.635 116.46 175.419 116.856 175.149 117.108C174.789 117.18 173.754 117.216 172.044 117.216C171.162 117.216 170.253 117.126 169.317 116.946C168.399 116.748 167.886 116.559 167.778 116.379C167.724 116.163 167.697 115.659 167.697 114.867C167.697 113.445 167.769 112.68 167.913 112.572C168.669 112.41 169.155 112.329 169.371 112.329C169.551 112.329 169.704 112.356 169.83 112.41C169.668 112.158 169.587 110.853 169.587 108.495C169.587 107.685 169.614 107.226 169.668 107.118C169.452 107.154 169.254 107.172 169.074 107.172C168.426 107.172 167.976 107.01 167.724 106.686C167.652 106.524 167.616 106.011 167.616 105.147ZM181.454 111.384C181.454 110.07 181.643 108.81 182.021 107.604C182.417 106.38 183.047 105.336 183.911 104.472C184.793 103.608 185.828 103.176 187.016 103.176C187.502 103.176 187.934 103.248 188.312 103.392C188.708 103.536 189.014 103.716 189.23 103.932C189.464 104.13 189.653 104.337 189.797 104.553C189.941 104.751 190.04 104.922 190.094 105.066L190.202 105.282C190.202 104.67 190.193 104.211 190.175 103.905C190.769 103.401 191.831 103.149 193.361 103.149C193.901 103.149 194.378 103.167 194.792 103.203C195.224 103.239 195.548 103.284 195.764 103.338C195.98 103.392 196.151 103.446 196.277 103.5C196.421 103.554 196.511 103.59 196.547 103.608L196.601 103.635C196.673 103.797 196.709 104.301 196.709 105.147C196.709 106.011 196.673 106.524 196.601 106.686C196.349 107.01 195.899 107.172 195.251 107.172C195.071 107.172 194.873 107.154 194.657 107.118C194.711 107.226 194.738 107.685 194.738 108.495C194.738 110.853 194.657 112.158 194.495 112.41C194.621 112.356 194.774 112.329 194.954 112.329C195.17 112.329 195.656 112.41 196.412 112.572C196.556 112.68 196.628 113.445 196.628 114.867C196.628 115.659 196.601 116.163 196.547 116.379C196.439 116.577 196.034 116.766 195.332 116.946C194.648 117.126 193.919 117.216 193.145 117.216C190.985 117.216 189.779 117.18 189.527 117.108C189.401 116.766 189.338 116.478 189.338 116.244C189.338 116.1 189.365 115.992 189.419 115.92C189.149 116.01 188.564 116.289 187.664 116.757C186.782 117.207 186.116 117.432 185.666 117.432C184.28 117.432 183.227 116.847 182.507 115.677C181.805 114.507 181.454 113.076 181.454 111.384ZM185.045 110.871C185.045 111.447 185.216 111.942 185.558 112.356C185.9 112.77 186.35 112.977 186.908 112.977C187.646 112.977 188.321 112.653 188.933 112.005C189.563 111.357 189.878 110.619 189.878 109.791C189.878 109.179 189.698 108.666 189.338 108.252C188.996 107.838 188.537 107.631 187.961 107.631C187.421 107.631 186.917 107.811 186.449 108.171C185.981 108.531 185.621 109.008 185.369 109.602C185.153 110.016 185.045 110.439 185.045 110.871ZM198.168 114.759C198.168 113.877 198.348 113.364 198.708 113.22C198.87 113.13 199.185 113.049 199.653 112.977C199.977 112.923 200.184 112.896 200.274 112.896C200.076 110.808 199.977 109.476 199.977 108.9C199.977 107.64 200.067 106.812 200.247 106.416C199.725 106.416 199.32 106.38 199.032 106.308C198.888 105.93 198.816 105.597 198.816 105.309C198.816 104.751 199.059 104.112 199.545 103.392C200.211 103.266 201.462 103.203 203.298 103.203C203.928 103.203 204.54 103.239 205.134 103.311C205.728 103.383 206.187 103.473 206.511 103.581C206.853 103.671 207.024 103.761 207.024 103.851C207.168 104.067 207.24 104.4 207.24 104.85C207.24 105.804 207.096 106.461 206.808 106.821C206.754 106.893 206.511 106.929 206.079 106.929C205.647 106.929 205.341 106.884 205.161 106.794C204.963 108.054 204.864 109.683 204.864 111.681C204.864 112.527 204.891 112.968 204.945 113.004C205.053 112.986 205.206 112.977 205.404 112.977C205.872 112.977 206.304 113.076 206.7 113.274C206.772 113.4 206.808 113.616 206.808 113.922C206.808 114.372 206.736 114.903 206.592 115.515C206.448 116.109 206.304 116.523 206.16 116.757C205.872 116.919 204.909 117 203.271 117C200.643 117 199.122 116.757 198.708 116.271C198.348 116.019 198.168 115.515 198.168 114.759ZM200.868 97.938C200.868 97.434 201.138 97.182 201.678 97.182C202.128 97.182 202.614 97.317 203.136 97.587C203.514 97.209 204.018 97.02 204.648 97.02C205.044 97.02 205.395 97.155 205.701 97.425C206.007 97.695 206.16 98.064 206.16 98.532C206.16 98.766 206.106 98.991 205.998 99.207C205.908 99.423 205.809 99.603 205.701 99.747C205.593 99.891 205.413 100.062 205.161 100.26C204.909 100.44 204.711 100.575 204.567 100.665C204.441 100.737 204.207 100.872 203.865 101.07C203.523 101.25 203.307 101.367 203.217 101.421C202.515 100.899 201.948 100.314 201.516 99.666C201.084 99 200.868 98.424 200.868 97.938Z" fill="white"/>
<path d="M100.021 195C99.6113 195 99.4062 194.78 99.4062 194.341V183.056C99.4062 182.616 99.6113 182.396 100.021 182.396H103.309C105.418 182.396 106.88 182.739 107.694 183.425C108.515 184.11 108.925 185.083 108.925 186.343C108.925 187.603 108.515 188.575 107.694 189.261C106.88 189.946 105.418 190.289 103.309 190.289H101.973V194.341C101.973 194.78 101.768 195 101.357 195H100.021ZM101.973 188.145H103.3C104.472 188.145 105.269 188.007 105.69 187.731C106.112 187.45 106.323 186.987 106.323 186.343C106.323 185.698 106.112 185.238 105.69 184.963C105.269 184.682 104.472 184.541 103.3 184.541H101.973V188.145ZM111.395 195C111.043 195 110.867 194.824 110.867 194.473V186.299C110.867 185.947 111.043 185.771 111.395 185.771H112.783C113.135 185.771 113.311 185.947 113.311 186.299V187.02H113.346C113.498 186.645 113.753 186.313 114.11 186.026C114.468 185.739 114.89 185.596 115.376 185.596C115.71 185.596 115.985 185.637 116.202 185.719C116.407 185.795 116.486 185.936 116.439 186.141L116.193 187.187C116.141 187.421 115.982 187.491 115.719 187.397C115.566 187.345 115.42 187.318 115.279 187.318C114.717 187.318 114.251 187.655 113.882 188.329C113.513 189.003 113.328 189.984 113.328 191.273V194.473C113.328 194.824 113.152 195 112.801 195H111.395ZM117.283 190.386C117.283 188.892 117.667 187.72 118.435 186.87C119.208 186.021 120.356 185.596 121.88 185.596C123.403 185.596 124.549 186.021 125.316 186.87C126.09 187.72 126.477 188.892 126.477 190.386C126.477 191.88 126.09 193.052 125.316 193.901C124.549 194.751 123.403 195.176 121.88 195.176C120.356 195.176 119.208 194.751 118.435 193.901C117.667 193.052 117.283 191.88 117.283 190.386ZM119.885 190.386C119.885 191.499 120.055 192.29 120.395 192.759C120.74 193.222 121.235 193.453 121.88 193.453C122.524 193.453 123.017 193.222 123.356 192.759C123.702 192.29 123.875 191.499 123.875 190.386C123.875 189.272 123.702 188.484 123.356 188.021C123.017 187.553 122.524 187.318 121.88 187.318C121.235 187.318 120.74 187.553 120.395 188.021C120.055 188.484 119.885 189.272 119.885 190.386ZM128.067 187.529C127.722 187.529 127.549 187.383 127.549 187.09V186.211C127.549 185.918 127.722 185.771 128.067 185.771H128.56V184.541C128.56 183.463 128.867 182.745 129.482 182.388C130.098 182.03 130.83 181.852 131.68 181.852C132.084 181.852 132.43 181.875 132.717 181.922C133.01 181.969 133.268 182.027 133.49 182.098C133.701 182.168 133.777 182.314 133.719 182.537L133.455 183.53C133.402 183.724 133.268 183.782 133.051 183.706C132.922 183.659 132.74 183.627 132.506 183.609C132.277 183.586 132.096 183.574 131.961 183.574C131.533 183.574 131.27 183.724 131.17 184.022C131.07 184.321 131.021 184.787 131.021 185.42V185.771H132.181C132.526 185.771 132.699 185.918 132.699 186.211V187.09C132.699 187.383 132.526 187.529 132.181 187.529H131.021V194.473C131.021 194.824 130.845 195 130.493 195H129.087C128.735 195 128.56 194.824 128.56 194.473V187.529H128.067ZM133.877 190.386C133.877 188.903 134.246 187.734 134.984 186.879C135.729 186.023 136.777 185.596 138.131 185.596C139.701 185.596 140.867 186 141.629 186.809C142.391 187.617 142.771 188.918 142.771 190.711C142.771 191.062 142.607 191.238 142.279 191.238H136.479C136.572 192.211 136.812 192.823 137.199 193.075C137.586 193.327 138.034 193.453 138.544 193.453C139.03 193.453 139.402 193.389 139.66 193.26C139.918 193.131 140.135 192.955 140.311 192.732C140.51 192.475 140.756 192.434 141.049 192.609L141.928 193.146C142.273 193.356 142.323 193.608 142.077 193.901C141.72 194.329 141.301 194.648 140.82 194.859C140.34 195.07 139.581 195.176 138.544 195.176C136.862 195.176 135.664 194.748 134.949 193.893C134.234 193.037 133.877 191.868 133.877 190.386ZM136.487 189.48H140.311C140.311 188.848 140.152 188.332 139.836 187.934C139.52 187.529 139.016 187.327 138.324 187.327C137.773 187.327 137.337 187.521 137.015 187.907C136.692 188.288 136.517 188.812 136.487 189.48ZM144.503 194.385C144.216 194.18 144.137 193.96 144.266 193.726L144.714 192.908C144.872 192.615 145.118 192.58 145.452 192.803C145.786 193.025 146.179 193.189 146.63 193.295C147.087 193.4 147.503 193.453 147.878 193.453C148.142 193.453 148.388 193.427 148.616 193.374C148.845 193.321 149.038 193.219 149.196 193.066C149.354 192.914 149.434 192.691 149.434 192.398C149.434 192.223 149.387 192.073 149.293 191.95C149.199 191.827 149.079 191.733 148.933 191.669C148.786 191.604 148.631 191.552 148.467 191.511C148.25 191.458 147.937 191.37 147.526 191.247C147.122 191.124 146.732 190.98 146.357 190.816C146.047 190.682 145.742 190.494 145.443 190.254C145.15 190.008 144.934 189.735 144.793 189.437C144.658 189.138 144.591 188.769 144.591 188.329C144.591 187.737 144.761 187.219 145.101 186.773C145.446 186.328 145.892 186.021 146.437 185.851C146.981 185.681 147.661 185.596 148.476 185.596C149.026 185.596 149.562 185.675 150.084 185.833C150.605 185.991 150.978 186.141 151.2 186.281C151.552 186.504 151.64 186.741 151.464 186.993L150.928 187.775C150.764 188.01 150.5 188.027 150.137 187.828C149.861 187.676 149.589 187.553 149.319 187.459C149.056 187.365 148.76 187.318 148.432 187.318C148.209 187.318 147.995 187.342 147.79 187.389C147.585 187.436 147.409 187.523 147.263 187.652C147.122 187.781 147.052 187.951 147.052 188.162C147.052 188.385 147.116 188.561 147.245 188.689C147.38 188.812 147.532 188.903 147.702 188.962C147.878 189.021 148.045 189.076 148.203 189.129C148.531 189.234 148.862 189.337 149.196 189.437C149.53 189.53 149.87 189.645 150.216 189.779C150.515 189.896 150.805 190.063 151.086 190.28C151.367 190.497 151.572 190.772 151.701 191.106C151.83 191.44 151.895 191.821 151.895 192.249C151.895 192.817 151.725 193.345 151.385 193.831C151.045 194.317 150.597 194.663 150.04 194.868C149.483 195.073 148.836 195.176 148.098 195.176C147.271 195.176 146.568 195.117 145.988 195C145.408 194.883 144.913 194.678 144.503 194.385ZM153.345 194.385C153.058 194.18 152.979 193.96 153.107 193.726L153.556 192.908C153.714 192.615 153.96 192.58 154.294 192.803C154.628 193.025 155.021 193.189 155.472 193.295C155.929 193.4 156.345 193.453 156.72 193.453C156.983 193.453 157.229 193.427 157.458 193.374C157.687 193.321 157.88 193.219 158.038 193.066C158.196 192.914 158.275 192.691 158.275 192.398C158.275 192.223 158.229 192.073 158.135 191.95C158.041 191.827 157.921 191.733 157.774 191.669C157.628 191.604 157.473 191.552 157.309 191.511C157.092 191.458 156.778 191.37 156.368 191.247C155.964 191.124 155.574 190.98 155.199 190.816C154.889 190.682 154.584 190.494 154.285 190.254C153.992 190.008 153.775 189.735 153.635 189.437C153.5 189.138 153.433 188.769 153.433 188.329C153.433 187.737 153.603 187.219 153.942 186.773C154.288 186.328 154.733 186.021 155.278 185.851C155.823 185.681 156.503 185.596 157.317 185.596C157.868 185.596 158.404 185.675 158.926 185.833C159.447 185.991 159.819 186.141 160.042 186.281C160.394 186.504 160.481 186.741 160.306 186.993L159.77 187.775C159.605 188.01 159.342 188.027 158.979 187.828C158.703 187.676 158.431 187.553 158.161 187.459C157.897 187.365 157.602 187.318 157.273 187.318C157.051 187.318 156.837 187.342 156.632 187.389C156.427 187.436 156.251 187.523 156.104 187.652C155.964 187.781 155.894 187.951 155.894 188.162C155.894 188.385 155.958 188.561 156.087 188.689C156.222 188.812 156.374 188.903 156.544 188.962C156.72 189.021 156.887 189.076 157.045 189.129C157.373 189.234 157.704 189.337 158.038 189.437C158.372 189.53 158.712 189.645 159.058 189.779C159.356 189.896 159.646 190.063 159.928 190.28C160.209 190.497 160.414 190.772 160.543 191.106C160.672 191.44 160.736 191.821 160.736 192.249C160.736 192.817 160.566 193.345 160.227 193.831C159.887 194.317 159.438 194.663 158.882 194.868C158.325 195.073 157.678 195.176 156.939 195.176C156.113 195.176 155.41 195.117 154.83 195C154.25 194.883 153.755 194.678 153.345 194.385ZM162.898 195C162.547 195 162.371 194.824 162.371 194.473V186.299C162.371 185.947 162.547 185.771 162.898 185.771H164.305C164.656 185.771 164.832 185.947 164.832 186.299V194.473C164.832 194.824 164.656 195 164.305 195H162.898ZM162.898 184.418C162.547 184.418 162.371 184.242 162.371 183.891V182.766C162.371 182.414 162.547 182.238 162.898 182.238H164.305C164.656 182.238 164.832 182.414 164.832 182.766V183.891C164.832 184.242 164.656 184.418 164.305 184.418H162.898ZM166.73 190.386C166.73 188.892 167.114 187.72 167.882 186.87C168.655 186.021 169.804 185.596 171.327 185.596C172.851 185.596 173.996 186.021 174.764 186.87C175.537 187.72 175.924 188.892 175.924 190.386C175.924 191.88 175.537 193.052 174.764 193.901C173.996 194.751 172.851 195.176 171.327 195.176C169.804 195.176 168.655 194.751 167.882 193.901C167.114 193.052 166.73 191.88 166.73 190.386ZM169.332 190.386C169.332 191.499 169.502 192.29 169.842 192.759C170.188 193.222 170.683 193.453 171.327 193.453C171.972 193.453 172.464 193.222 172.804 192.759C173.149 192.29 173.322 191.499 173.322 190.386C173.322 189.272 173.149 188.484 172.804 188.021C172.464 187.553 171.972 187.318 171.327 187.318C170.683 187.318 170.188 187.553 169.842 188.021C169.502 188.484 169.332 189.272 169.332 190.386ZM178.35 195C177.998 195 177.822 194.824 177.822 194.473V186.299C177.822 185.947 177.998 185.771 178.35 185.771H179.738C180.09 185.771 180.266 185.947 180.266 186.299V186.809H180.301C180.57 186.346 180.913 186.029 181.329 185.859C181.745 185.684 182.246 185.596 182.832 185.596C183.746 185.596 184.502 185.883 185.1 186.457C185.697 187.031 185.996 188.08 185.996 189.604V194.473C185.996 194.824 185.82 195 185.469 195H184.062C183.711 195 183.535 194.824 183.535 194.473V190.236C183.535 188.959 183.447 188.153 183.271 187.819C183.096 187.485 182.718 187.318 182.138 187.318C181.522 187.318 181.06 187.559 180.749 188.039C180.438 188.514 180.283 189.504 180.283 191.01V194.473C180.283 194.824 180.107 195 179.756 195H178.35ZM187.877 192.539C187.877 191.367 188.437 190.518 189.556 189.99C190.675 189.463 191.952 189.182 193.388 189.146V188.795C193.388 188.256 193.253 187.875 192.983 187.652C192.714 187.43 192.339 187.318 191.858 187.318C191.519 187.318 191.217 187.368 190.953 187.468C190.695 187.562 190.47 187.673 190.276 187.802C190.089 187.925 189.919 188.051 189.767 188.18C189.497 188.414 189.274 188.426 189.099 188.215L188.369 187.318C188.188 187.096 188.231 186.867 188.501 186.633C188.706 186.451 188.943 186.293 189.213 186.158C189.488 186.023 189.852 185.897 190.303 185.78C190.754 185.657 191.34 185.596 192.061 185.596C193.279 185.596 194.214 185.877 194.864 186.439C195.521 187.002 195.849 187.831 195.849 188.927V194.473C195.849 194.824 195.673 195 195.321 195H193.88C193.563 195 193.405 194.824 193.405 194.473V194.209H193.388C193.042 194.543 192.626 194.789 192.14 194.947C191.659 195.1 191.217 195.176 190.812 195.176C189.852 195.176 189.122 194.941 188.624 194.473C188.126 193.998 187.877 193.354 187.877 192.539ZM190.479 192.486C190.479 192.691 190.52 192.87 190.602 193.022C190.684 193.169 190.812 193.277 190.988 193.348C191.164 193.418 191.36 193.453 191.577 193.453C191.876 193.453 192.166 193.412 192.447 193.33C192.729 193.248 193.042 193.055 193.388 192.75V190.843C192.403 190.954 191.744 191.098 191.41 191.273C191.076 191.449 190.836 191.631 190.689 191.818C190.549 192.006 190.479 192.229 190.479 192.486ZM198.775 195C198.424 195 198.248 194.824 198.248 194.473V184.093C198.248 183.829 198.31 183.589 198.433 183.372L199.109 182.186C199.238 181.963 199.391 181.852 199.566 181.852H200.182C200.533 181.852 200.709 182.027 200.709 182.379V194.473C200.709 194.824 200.533 195 200.182 195H198.775Z" fill="white"/>
<path d="M116.756 210.698C116.756 208.677 117.269 207.071 118.294 205.882C119.319 204.692 120.799 204.098 122.732 204.098C123.846 204.098 124.789 204.271 125.562 204.616C126.336 204.962 126.881 205.463 127.197 206.119C127.408 206.553 127.373 206.846 127.092 206.998L126.037 207.561C125.668 207.76 125.363 207.648 125.123 207.227C124.971 206.957 124.687 206.714 124.271 206.497C123.86 206.28 123.377 206.172 122.82 206.172C121.59 206.172 120.729 206.562 120.236 207.341C119.744 208.114 119.498 209.233 119.498 210.698C119.498 212.163 119.744 213.285 120.236 214.064C120.729 214.838 121.59 215.225 122.82 215.225C123.482 215.225 124.039 215.075 124.49 214.776C124.947 214.478 125.264 214.193 125.439 213.924C125.727 213.484 126.031 213.373 126.354 213.59L127.408 214.293C127.695 214.486 127.725 214.779 127.496 215.172C127.156 215.758 126.573 216.259 125.747 216.675C124.921 217.091 123.916 217.299 122.732 217.299C120.828 217.299 119.354 216.704 118.312 215.515C117.274 214.325 116.756 212.72 116.756 210.698ZM130.186 217C129.834 217 129.658 216.824 129.658 216.473V204.555C129.658 204.203 129.834 204.027 130.186 204.027H131.592C131.943 204.027 132.119 204.203 132.119 204.555V208.105C132.119 208.34 132.107 208.574 132.084 208.809H132.137C132.406 208.346 132.749 208.029 133.165 207.859C133.581 207.684 134.082 207.596 134.668 207.596C135.582 207.596 136.338 207.883 136.936 208.457C137.533 209.031 137.832 210.08 137.832 211.604V216.473C137.832 216.824 137.656 217 137.305 217H135.898C135.547 217 135.371 216.824 135.371 216.473V212.236C135.371 210.959 135.283 210.153 135.107 209.819C134.932 209.485 134.554 209.318 133.974 209.318C133.358 209.318 132.896 209.559 132.585 210.039C132.274 210.514 132.119 211.504 132.119 213.01V216.473C132.119 216.824 131.943 217 131.592 217H130.186ZM139.713 214.539C139.713 213.367 140.272 212.518 141.392 211.99C142.511 211.463 143.788 211.182 145.224 211.146V210.795C145.224 210.256 145.089 209.875 144.819 209.652C144.55 209.43 144.175 209.318 143.694 209.318C143.354 209.318 143.053 209.368 142.789 209.468C142.531 209.562 142.306 209.673 142.112 209.802C141.925 209.925 141.755 210.051 141.603 210.18C141.333 210.414 141.11 210.426 140.935 210.215L140.205 209.318C140.023 209.096 140.067 208.867 140.337 208.633C140.542 208.451 140.779 208.293 141.049 208.158C141.324 208.023 141.688 207.897 142.139 207.78C142.59 207.657 143.176 207.596 143.896 207.596C145.115 207.596 146.05 207.877 146.7 208.439C147.356 209.002 147.685 209.831 147.685 210.927V216.473C147.685 216.824 147.509 217 147.157 217H145.716C145.399 217 145.241 216.824 145.241 216.473V216.209H145.224C144.878 216.543 144.462 216.789 143.976 216.947C143.495 217.1 143.053 217.176 142.648 217.176C141.688 217.176 140.958 216.941 140.46 216.473C139.962 215.998 139.713 215.354 139.713 214.539ZM142.314 214.486C142.314 214.691 142.355 214.87 142.438 215.022C142.52 215.169 142.648 215.277 142.824 215.348C143 215.418 143.196 215.453 143.413 215.453C143.712 215.453 144.002 215.412 144.283 215.33C144.564 215.248 144.878 215.055 145.224 214.75V212.843C144.239 212.954 143.58 213.098 143.246 213.273C142.912 213.449 142.672 213.631 142.525 213.818C142.385 214.006 142.314 214.229 142.314 214.486ZM150.611 220.516C150.26 220.516 150.084 220.34 150.084 219.988V208.299C150.084 207.947 150.26 207.771 150.611 207.771H152C152.293 207.771 152.451 207.947 152.475 208.299L152.51 208.809H152.545C152.85 208.305 153.189 207.977 153.564 207.824C153.939 207.672 154.391 207.596 154.918 207.596C156.295 207.596 157.262 208.073 157.818 209.028C158.381 209.978 158.662 211.097 158.662 212.386C158.662 213.675 158.381 214.797 157.818 215.752C157.262 216.701 156.295 217.176 154.918 217.176C154.391 217.176 153.939 217.1 153.564 216.947C153.189 216.795 152.85 216.467 152.545 215.963H152.51C152.533 216.197 152.545 216.432 152.545 216.666V219.988C152.545 220.34 152.369 220.516 152.018 220.516H150.611ZM152.545 212.781C152.545 213.572 152.7 214.217 153.011 214.715C153.327 215.207 153.705 215.453 154.145 215.453C154.936 215.453 155.451 215.178 155.691 214.627C155.938 214.07 156.061 213.323 156.061 212.386C156.061 211.448 155.938 210.704 155.691 210.153C155.451 209.597 154.936 209.318 154.145 209.318C153.705 209.318 153.327 209.567 153.011 210.065C152.7 210.558 152.545 211.199 152.545 211.99V212.781ZM160.253 209.529C159.907 209.529 159.734 209.383 159.734 209.09V208.211C159.734 207.918 159.907 207.771 160.253 207.771H160.851V207.464C160.851 207.2 160.912 206.96 161.035 206.743L161.712 205.557C161.841 205.334 161.993 205.223 162.169 205.223H162.784C163.136 205.223 163.312 205.398 163.312 205.75V207.771H164.735C165.081 207.771 165.254 207.918 165.254 208.211V209.09C165.254 209.383 165.081 209.529 164.735 209.529H163.312V213.889C163.312 214.486 163.353 214.917 163.435 215.181C163.522 215.438 163.745 215.567 164.103 215.567C164.284 215.567 164.489 215.538 164.718 215.479C164.946 215.415 165.125 215.354 165.254 215.295C165.459 215.201 165.594 215.269 165.658 215.497L165.922 216.499C165.975 216.698 165.898 216.845 165.693 216.938C165.5 217.026 165.233 217.105 164.894 217.176C164.56 217.252 164.223 217.29 163.883 217.29C163.045 217.29 162.33 217.117 161.738 216.771C161.146 216.426 160.851 215.714 160.851 214.636V209.529H160.253ZM167.082 212.386C167.082 210.903 167.451 209.734 168.189 208.879C168.934 208.023 169.982 207.596 171.336 207.596C172.906 207.596 174.072 208 174.834 208.809C175.596 209.617 175.977 210.918 175.977 212.711C175.977 213.062 175.812 213.238 175.484 213.238H169.684C169.777 214.211 170.018 214.823 170.404 215.075C170.791 215.327 171.239 215.453 171.749 215.453C172.235 215.453 172.607 215.389 172.865 215.26C173.123 215.131 173.34 214.955 173.516 214.732C173.715 214.475 173.961 214.434 174.254 214.609L175.133 215.146C175.479 215.356 175.528 215.608 175.282 215.901C174.925 216.329 174.506 216.648 174.025 216.859C173.545 217.07 172.786 217.176 171.749 217.176C170.067 217.176 168.869 216.748 168.154 215.893C167.439 215.037 167.082 213.868 167.082 212.386ZM169.692 211.48H173.516C173.516 210.848 173.357 210.332 173.041 209.934C172.725 209.529 172.221 209.327 171.529 209.327C170.979 209.327 170.542 209.521 170.22 209.907C169.897 210.288 169.722 210.812 169.692 211.48ZM178.42 217C178.068 217 177.893 216.824 177.893 216.473V208.299C177.893 207.947 178.068 207.771 178.42 207.771H179.809C180.16 207.771 180.336 207.947 180.336 208.299V209.02H180.371C180.523 208.645 180.778 208.313 181.136 208.026C181.493 207.739 181.915 207.596 182.401 207.596C182.735 207.596 183.011 207.637 183.228 207.719C183.433 207.795 183.512 207.936 183.465 208.141L183.219 209.187C183.166 209.421 183.008 209.491 182.744 209.397C182.592 209.345 182.445 209.318 182.305 209.318C181.742 209.318 181.276 209.655 180.907 210.329C180.538 211.003 180.354 211.984 180.354 213.273V216.473C180.354 216.824 180.178 217 179.826 217H178.42Z" fill="white"/>
</g>
<defs>
<linearGradient id="paint0_linear_18_2" x1="-22.3234" y1="299.98" x2="-22.3234" y2="0.00222331" gradientUnits="userSpaceOnUse">
<stop stop-color="#3792C1"/>
<stop offset="0.015625" stop-color="#3792C1"/>
<stop offset="0.03125" stop-color="#3893C2"/>
<stop offset="0.046875" stop-color="#3993C3"/>
<stop offset="0.0625" stop-color="#3A94C3"/>
<stop offset="0.078125" stop-color="#3B95C4"/>
<stop offset="0.09375" stop-color="#3C96C5"/>
<stop offset="0.109375" stop-color="#3D96C5"/>
<stop offset="0.125" stop-color="#3E97C6"/>
<stop offset="0.140625" stop-color="#3F98C7"/>
<stop offset="0.15625" stop-color="#4099C7"/>
<stop offset="0.171875" stop-color="#4199C8"/>
<stop offset="0.1875" stop-color="#429AC9"/>
<stop offset="0.203125" stop-color="#439BC9"/>
<stop offset="0.21875" stop-color="#449CCA"/>
<stop offset="0.234375" stop-color="#459CCB"/>
<stop offset="0.25" stop-color="#469DCB"/>
<stop offset="0.265625" stop-color="#489ECC"/>
<stop offset="0.28125" stop-color="#499ECD"/>
<stop offset="0.296875" stop-color="#4A9FCD"/>
<stop offset="0.3125" stop-color="#4BA0CE"/>
<stop offset="0.328125" stop-color="#4CA1CF"/>
<stop offset="0.34375" stop-color="#4DA2CF"/>
<stop offset="0.359375" stop-color="#4EA2D0"/>
<stop offset="0.375" stop-color="#4FA3D1"/>
<stop offset="0.390625" stop-color="#50A4D1"/>
<stop offset="0.40625" stop-color="#51A5D2"/>
<stop offset="0.414063" stop-color="#52A5D3"/>
<stop offset="0.421875" stop-color="#53A6D3"/>
<stop offset="0.4375" stop-color="#54A6D4"/>
<stop offset="0.445313" stop-color="#54A7D4"/>
<stop offset="0.453125" stop-color="#55A7D4"/>
<stop offset="0.460938" stop-color="#56A7D5"/>
<stop offset="0.46875" stop-color="#56A8D5"/>
<stop offset="0.476563" stop-color="#57A8D5"/>
<stop offset="0.484375" stop-color="#57A9D6"/>
<stop offset="0.492188" stop-color="#58A9D6"/>
<stop offset="0.5" stop-color="#58A9D6"/>
<stop offset="0.507813" stop-color="#59AAD7"/>
<stop offset="0.515625" stop-color="#5AAAD7"/>
<stop offset="0.523438" stop-color="#5AABD7"/>
<stop offset="0.53125" stop-color="#5BABD8"/>
<stop offset="0.539063" stop-color="#5BABD8"/>
<stop offset="0.546875" stop-color="#5CACD9"/>
<stop offset="0.554688" stop-color="#5DACD9"/>
<stop offset="0.5625" stop-color="#5DADD9"/>
<stop offset="0.570313" stop-color="#5EADDA"/>
<stop offset="0.578125" stop-color="#5EADDA"/>
<stop offset="0.585938" stop-color="#5FAEDA"/>
<stop offset="0.59375" stop-color="#60AEDB"/>
<stop offset="0.601563" stop-color="#60AEDB"/>
<stop offset="0.609375" stop-color="#61AFDB"/>
<stop offset="0.617188" stop-color="#61AFDC"/>
<stop offset="0.625" stop-color="#62B0DC"/>
<stop offset="0.632813" stop-color="#63B0DC"/>
<stop offset="0.640625" stop-color="#63B0DD"/>
<stop offset="0.648438" stop-color="#64B1DD"/>
<stop offset="0.65625" stop-color="#64B1DD"/>
<stop offset="0.664063" stop-color="#65B2DE"/>
<stop offset="0.671875" stop-color="#66B2DE"/>
<stop offset="0.679688" stop-color="#66B2DE"/>
<stop offset="0.6875" stop-color="#67B3DF"/>
<stop offset="0.695313" stop-color="#67B3DF"/>
<stop offset="0.703125" stop-color="#68B4DF"/>
<stop offset="0.710938" stop-color="#69B4E0"/>
<stop offset="0.71875" stop-color="#69B4E0"/>
<stop offset="0.726563" stop-color="#6AB5E1"/>
<stop offset="0.734375" stop-color="#6BB5E1"/>
<stop offset="0.742188" stop-color="#6BB6E1"/>
<stop offset="0.75" stop-color="#6CB6E2"/>
<stop offset="0.757812" stop-color="#6CB6E2"/>
<stop offset="0.765625" stop-color="#6DB7E2"/>
<stop offset="0.773438" stop-color="#6EB7E3"/>
<stop offset="0.78125" stop-color="#6EB8E3"/>
<stop offset="0.789063" stop-color="#6FB8E3"/>
<stop offset="0.796875" stop-color="#70B8E4"/>
<stop offset="0.804687" stop-color="#70B9E4"/>
<stop offset="0.8125" stop-color="#71B9E4"/>
<stop offset="0.820313" stop-color="#71BAE5"/>
<stop offset="0.828125" stop-color="#72BAE5"/>
<stop offset="0.835938" stop-color="#73BAE5"/>
<stop offset="0.84375" stop-color="#73BBE6"/>
<stop offset="0.851562" stop-color="#74BBE6"/>
<stop offset="0.859375" stop-color="#75BCE6"/>
<stop offset="0.867188" stop-color="#75BCE7"/>
<stop offset="0.875" stop-color="#76BDE7"/>
<stop offset="0.882813" stop-color="#77BDE8"/>
<stop offset="0.890625" stop-color="#77BDE8"/>
<stop offset="0.898438" stop-color="#78BEE8"/>
<stop offset="0.90625" stop-color="#79BEE9"/>
<stop offset="0.914063" stop-color="#79BFE9"/>
<stop offset="0.921875" stop-color="#7ABFE9"/>
<stop offset="0.929688" stop-color="#7BBFEA"/>
<stop offset="0.9375" stop-color="#7BC0EA"/>
<stop offset="0.945313" stop-color="#7CC0EA"/>
<stop offset="0.953125" stop-color="#7DC1EB"/>
<stop offset="0.960938" stop-color="#7DC1EB"/>
<stop offset="0.96875" stop-color="#7EC1EB"/>
<stop offset="0.976563" stop-color="#7FC2EC"/>
<stop offset="0.984375" stop-color="#7FC2EC"/>
<stop offset="0.992188" stop-color="#80C3ED"/>
<stop offset="1" stop-color="#81C3ED"/>
</linearGradient>
<linearGradient id="paint1_linear_18_2" x1="255.091" y1="67.2231" x2="255.091" y2="232.781" gradientUnits="userSpaceOnUse">
<stop offset="0.0165979" stop-color="#3792C1"/>
<stop offset="0.03125" stop-color="#3792C1"/>
<stop offset="0.0390625" stop-color="#3792C1"/>
<stop offset="0.0429687" stop-color="#3893C2"/>
<stop offset="0.046875" stop-color="#3993C2"/>
<stop offset="0.0546875" stop-color="#3993C3"/>
<stop offset="0.0625" stop-color="#3A94C3"/>
<stop offset="0.0703125" stop-color="#3B95C4"/>
<stop offset="0.078125" stop-color="#3C96C5"/>
<stop offset="0.0859375" stop-color="#3D96C5"/>
<stop offset="0.09375" stop-color="#3E97C6"/>
<stop offset="0.101563" stop-color="#3F98C7"/>
<stop offset="0.109375" stop-color="#4098C7"/>
<stop offset="0.117187" stop-color="#4199C8"/>
<stop offset="0.125" stop-color="#429AC8"/>
<stop offset="0.132813" stop-color="#439BC9"/>
<stop offset="0.140625" stop-color="#449BCA"/>
<stop offset="0.148438" stop-color="#459CCA"/>
<stop offset="0.15625" stop-color="#469DCB"/>
<stop offset="0.164063" stop-color="#479DCC"/>
<stop offset="0.171875" stop-color="#489ECC"/>
<stop offset="0.179687" stop-color="#499FCD"/>
<stop offset="0.1875" stop-color="#4A9FCD"/>
<stop offset="0.195313" stop-color="#4AA0CE"/>
<stop offset="0.203125" stop-color="#4BA0CE"/>
<stop offset="0.210938" stop-color="#4CA1CF"/>
<stop offset="0.21875" stop-color="#4DA2D0"/>
<stop offset="0.226562" stop-color="#4EA2D0"/>
<stop offset="0.234375" stop-color="#4FA3D1"/>
<stop offset="0.242188" stop-color="#50A4D1"/>
<stop offset="0.25" stop-color="#51A4D2"/>
<stop offset="0.257813" stop-color="#52A5D2"/>
<stop offset="0.265625" stop-color="#53A5D3"/>
<stop offset="0.273438" stop-color="#54A6D3"/>
<stop offset="0.28125" stop-color="#54A7D4"/>
<stop offset="0.289063" stop-color="#55A7D5"/>
<stop offset="0.296875" stop-color="#56A8D5"/>
<stop offset="0.304688" stop-color="#57A8D6"/>
<stop offset="0.3125" stop-color="#58A9D6"/>
<stop offset="0.320313" stop-color="#59A9D7"/>
<stop offset="0.328125" stop-color="#59AAD7"/>
<stop offset="0.335938" stop-color="#5AABD8"/>
<stop offset="0.34375" stop-color="#5BABD8"/>
<stop offset="0.351562" stop-color="#5CACD8"/>
<stop offset="0.359375" stop-color="#5DACD9"/>
<stop offset="0.367188" stop-color="#5EADD9"/>
<stop offset="0.375" stop-color="#5EADDA"/>
<stop offset="0.382813" stop-color="#5FAEDA"/>
<stop offset="0.390625" stop-color="#60AEDB"/>
<stop offset="0.398438" stop-color="#61AFDB"/>
<stop offset="0.40625" stop-color="#61AFDC"/>
<stop offset="0.414063" stop-color="#62B0DC"/>
<stop offset="0.421875" stop-color="#63B0DD"/>
<stop offset="0.429688" stop-color="#64B1DD"/>
<stop offset="0.4375" stop-color="#64B1DD"/>
<stop offset="0.445312" stop-color="#65B2DE"/>
<stop offset="0.453125" stop-color="#66B2DE"/>
<stop offset="0.460938" stop-color="#67B3DF"/>
<stop offset="0.46875" stop-color="#67B3DF"/>
<stop offset="0.476563" stop-color="#68B4DF"/>
<stop offset="0.484375" stop-color="#69B4E0"/>
<stop offset="0.492188" stop-color="#69B4E0"/>
<stop offset="0.5" stop-color="#6AB5E1"/>
<stop offset="0.507813" stop-color="#6BB5E1"/>
<stop offset="0.515625" stop-color="#6BB6E1"/>
<stop offset="0.523437" stop-color="#6CB6E2"/>
<stop offset="0.53125" stop-color="#6DB7E2"/>
<stop offset="0.546875" stop-color="#6EB7E3"/>
<stop offset="0.5625" stop-color="#6FB8E3"/>
<stop offset="0.578125" stop-color="#70B9E4"/>
<stop offset="0.59375" stop-color="#71B9E5"/>
<stop offset="0.609375" stop-color="#72BAE5"/>
<stop offset="0.625" stop-color="#73BBE6"/>
<stop offset="0.640625" stop-color="#74BCE6"/>
<stop offset="0.65625" stop-color="#75BCE7"/>
<stop offset="0.671875" stop-color="#76BDE7"/>
<stop offset="0.6875" stop-color="#77BDE8"/>
<stop offset="0.703125" stop-color="#78BEE8"/>
<stop offset="0.71875" stop-color="#79BEE9"/>
<stop offset="0.734375" stop-color="#7ABFE9"/>
<stop offset="0.75" stop-color="#7BBFEA"/>
<stop offset="0.765625" stop-color="#7BC0EA"/>
<stop offset="0.78125" stop-color="#7CC0EA"/>
<stop offset="0.8125" stop-color="#7DC1EB"/>
<stop offset="0.84375" stop-color="#7EC2EB"/>
<stop offset="0.875" stop-color="#7FC2EC"/>
<stop offset="0.9375" stop-color="#80C3ED"/>
<stop offset="1" stop-color="#81C3ED"/>
</linearGradient>
<clipPath id="clip0_18_2">
<rect width="300" height="299.972" fill="white"/>
</clipPath>
</defs>
</svg>
